<mxfile host="app.diagrams.net" modified="2022-04-25T15:36:27.632Z" agent="5.0 (Windows NT 10.0; Win64; x64) AppleWebKit/537.36 (KHTML, like Gecko) Chrome/100.0.4896.127 Safari/537.36" etag="ucWYUOA3xvY3QseUzS57" version="17.4.6" type="github" pages="2">
  <diagram id="0tzvq71TPkFYUvg90D1R" name="Page-2">
    <mxGraphModel dx="392" dy="688" grid="1" gridSize="10" guides="1" tooltips="1" connect="1" arrows="1" fold="1" page="1" pageScale="1" pageWidth="827" pageHeight="1169" math="0" shadow="0">
      <root>
        <mxCell id="0" />
        <mxCell id="1" parent="0" />
        <mxCell id="dq-ApVNKk56_hduKXqSl-2" value="playAlarmSound" style="html=1;" vertex="1" parent="1">
          <mxGeometry x="210" y="490" width="110" height="50" as="geometry" />
        </mxCell>
        <mxCell id="dq-ApVNKk56_hduKXqSl-5" value="getActuralDefaultRingtoneUri" style="html=1;" vertex="1" parent="1">
          <mxGeometry x="414" y="200" width="180" height="50" as="geometry" />
        </mxCell>
        <mxCell id="dq-ApVNKk56_hduKXqSl-10" value="" style="curved=1;endArrow=classic;html=1;rounded=0;exitX=1;exitY=0.5;exitDx=0;exitDy=0;entryX=0;entryY=0.5;entryDx=0;entryDy=0;" edge="1" parent="1" source="dq-ApVNKk56_hduKXqSl-2" target="dq-ApVNKk56_hduKXqSl-5">
          <mxGeometry width="50" height="50" relative="1" as="geometry">
            <mxPoint x="340" y="335" as="sourcePoint" />
            <mxPoint x="430" y="245" as="targetPoint" />
            <Array as="points">
              <mxPoint x="350" y="230" />
            </Array>
          </mxGeometry>
        </mxCell>
        <mxCell id="dq-ApVNKk56_hduKXqSl-13" value="getContentResolver" style="html=1;" vertex="1" parent="1">
          <mxGeometry x="414" y="290" width="180" height="50" as="geometry" />
        </mxCell>
        <mxCell id="dq-ApVNKk56_hduKXqSl-14" value="" style="curved=1;endArrow=classic;html=1;rounded=0;exitX=1;exitY=0.5;exitDx=0;exitDy=0;entryX=0;entryY=0.5;entryDx=0;entryDy=0;" edge="1" parent="1" source="dq-ApVNKk56_hduKXqSl-2" target="dq-ApVNKk56_hduKXqSl-13">
          <mxGeometry width="50" height="50" relative="1" as="geometry">
            <mxPoint x="340" y="335" as="sourcePoint" />
            <mxPoint x="424" y="235" as="targetPoint" />
            <Array as="points" />
          </mxGeometry>
        </mxCell>
        <mxCell id="dq-ApVNKk56_hduKXqSl-15" value="setAudioStreamType&lt;span style=&quot;color: rgba(0 , 0 , 0 , 0) ; font-family: monospace ; font-size: 0px&quot;&gt;%3CmxGraphModel%3E%3Croot%3E%3CmxCell%20id%3D%220%22%2F%3E%3CmxCell%20id%3D%221%22%20parent%3D%220%22%2F%3E%3CmxCell%20id%3D%222%22%20value%3D%22getContentResolver%22%20style%3D%22html%3D1%3B%22%20vertex%3D%221%22%20parent%3D%221%22%3E%3CmxGeometry%20x%3D%22414%22%20y%3D%22290%22%20width%3D%22180%22%20height%3D%2250%22%20as%3D%22geometry%22%2F%3E%3C%2FmxCell%3E%3C%2Froot%3E%3C%2FmxGraphModel%3E&lt;/span&gt;" style="html=1;" vertex="1" parent="1">
          <mxGeometry x="414" y="380" width="180" height="50" as="geometry" />
        </mxCell>
        <mxCell id="dq-ApVNKk56_hduKXqSl-16" value="setDataSource&lt;span style=&quot;color: rgba(0 , 0 , 0 , 0) ; font-family: monospace ; font-size: 0px&quot;&gt;%3CmxGraphModel%3E%3Croot%3E%3CmxCell%20id%3D%220%22%2F%3E%3CmxCell%20id%3D%221%22%20parent%3D%220%22%2F%3E%3CmxCell%20id%3D%222%22%20value%3D%22getContentResolver%22%20style%3D%22html%3D1%3B%22%20vertex%3D%221%22%20parent%3D%221%22%3E%3CmxGeometry%20x%3D%22414%22%20y%3D%22290%22%20width%3D%22180%22%20height%3D%2250%22%20as%3D%22geometry%22%2F%3E%3C%2FmxCell%3E%3C%2Froot%3E%3C%2FmxGraphMo&lt;/span&gt;" style="html=1;" vertex="1" parent="1">
          <mxGeometry x="414" y="470" width="180" height="50" as="geometry" />
        </mxCell>
        <mxCell id="dq-ApVNKk56_hduKXqSl-17" value="prepare&lt;span style=&quot;color: rgba(0 , 0 , 0 , 0) ; font-family: monospace ; font-size: 0px&quot;&gt;%3CmxGraphModel%3E%3Croot%3E%3CmxCell%20id%3D%220%22%2F%3E%3CmxCell%20id%3D%221%22%20parent%3D%220%22%2F%3E%3CmxCell%20id%3D%222%22%20value%3D%22setDataSource%26lt%3Bspan%20style%3D%26quot%3Bcolor%3A%20rgba(0%20%2C%200%20%2C%200%20%2C%200)%20%3B%20font-family%3A%20monospace%20%3B%20font-size%3A%200px%26quot%3B%26gt%3B%253CmxGraphModel%253E%253Croot%253E%253CmxCell%2520id%253D%25220%2522%252F%253E%253CmxCell%2520id%253D%25221%2522%2520parent%253D%25220%2522%252F%253E%253CmxCell%2520id%253D%25222%2522%2520value%253D%2522getContentResolver%2522%2520style%253D%2522html%253D1%253B%2522%2520vertex%253D%25221%2522%2520parent%253D%25221%2522%253E%253CmxGeometry%2520x%253D%2522414%2522%2520y%253D%2522290%2522%2520width%253D%2522180%2522%2520height%253D%252250%2522%2520as%253D%2522geometry%2522%252F%253E%253C%252FmxCell%253E%253C%252Froot%253E%253C%252FmxGraphMo%26lt%3B%2Fspan%26gt%3B%22%20style%3D%22html%3D1%3B%22%20vertex%3D%221%22%20parent%3D%221%22%3E%3CmxGeometry%20x%3D%22414%22%20y%3D%22470%22%20width%3D%22180%22%20height%3D%2250%22%20as%3D%22geometry%22%2F%3E%3C%2FmxCell%3E%3C%2Froot%3E%3C%2FmxGraphModel%3E&lt;/span&gt;" style="html=1;" vertex="1" parent="1">
          <mxGeometry x="414" y="559.5" width="180" height="50" as="geometry" />
        </mxCell>
        <mxCell id="dq-ApVNKk56_hduKXqSl-18" value="setLopping" style="html=1;" vertex="1" parent="1">
          <mxGeometry x="414" y="650" width="180" height="50" as="geometry" />
        </mxCell>
        <mxCell id="dq-ApVNKk56_hduKXqSl-19" value="start" style="html=1;" vertex="1" parent="1">
          <mxGeometry x="414" y="740" width="180" height="50" as="geometry" />
        </mxCell>
        <mxCell id="dq-ApVNKk56_hduKXqSl-20" value="" style="curved=1;endArrow=classic;html=1;rounded=0;exitX=1;exitY=0.5;exitDx=0;exitDy=0;entryX=0;entryY=0.5;entryDx=0;entryDy=0;" edge="1" parent="1" source="dq-ApVNKk56_hduKXqSl-2" target="dq-ApVNKk56_hduKXqSl-15">
          <mxGeometry width="50" height="50" relative="1" as="geometry">
            <mxPoint x="340" y="335" as="sourcePoint" />
            <mxPoint x="424" y="325" as="targetPoint" />
            <Array as="points">
              <mxPoint x="370" y="430" />
            </Array>
          </mxGeometry>
        </mxCell>
        <mxCell id="dq-ApVNKk56_hduKXqSl-21" value="" style="curved=1;endArrow=classic;html=1;rounded=0;entryX=0;entryY=0.5;entryDx=0;entryDy=0;exitX=1;exitY=0.5;exitDx=0;exitDy=0;" edge="1" parent="1" source="dq-ApVNKk56_hduKXqSl-2" target="dq-ApVNKk56_hduKXqSl-16">
          <mxGeometry width="50" height="50" relative="1" as="geometry">
            <mxPoint x="330" y="330" as="sourcePoint" />
            <mxPoint x="434" y="335" as="targetPoint" />
            <Array as="points">
              <mxPoint x="370" y="490" />
            </Array>
          </mxGeometry>
        </mxCell>
        <mxCell id="dq-ApVNKk56_hduKXqSl-22" value="" style="curved=1;endArrow=classic;html=1;rounded=0;exitX=1;exitY=0.5;exitDx=0;exitDy=0;entryX=0;entryY=0.5;entryDx=0;entryDy=0;" edge="1" parent="1" source="dq-ApVNKk56_hduKXqSl-2" target="dq-ApVNKk56_hduKXqSl-17">
          <mxGeometry width="50" height="50" relative="1" as="geometry">
            <mxPoint x="360" y="355" as="sourcePoint" />
            <mxPoint x="444" y="345" as="targetPoint" />
            <Array as="points">
              <mxPoint x="370" y="540" />
            </Array>
          </mxGeometry>
        </mxCell>
        <mxCell id="dq-ApVNKk56_hduKXqSl-23" value="" style="curved=1;endArrow=classic;html=1;rounded=0;entryX=0;entryY=0.5;entryDx=0;entryDy=0;" edge="1" parent="1" target="dq-ApVNKk56_hduKXqSl-18">
          <mxGeometry width="50" height="50" relative="1" as="geometry">
            <mxPoint x="320" y="520" as="sourcePoint" />
            <mxPoint x="454" y="355" as="targetPoint" />
            <Array as="points">
              <mxPoint x="350" y="580" />
            </Array>
          </mxGeometry>
        </mxCell>
        <mxCell id="dq-ApVNKk56_hduKXqSl-24" value="" style="curved=1;endArrow=classic;html=1;rounded=0;exitX=1;exitY=0.5;exitDx=0;exitDy=0;entryX=0;entryY=0.5;entryDx=0;entryDy=0;" edge="1" parent="1" source="dq-ApVNKk56_hduKXqSl-2" target="dq-ApVNKk56_hduKXqSl-19">
          <mxGeometry width="50" height="50" relative="1" as="geometry">
            <mxPoint x="380" y="375" as="sourcePoint" />
            <mxPoint x="464" y="365" as="targetPoint" />
            <Array as="points">
              <mxPoint x="320" y="640" />
            </Array>
          </mxGeometry>
        </mxCell>
      </root>
    </mxGraphModel>
  </diagram>
  <diagram id="uNTQiZCuqdsfXEx3EqAQ" name="Page-3">
    <mxGraphModel dx="645" dy="332" grid="1" gridSize="10" guides="1" tooltips="1" connect="1" arrows="1" fold="1" page="1" pageScale="1" pageWidth="827" pageHeight="1169" math="0" shadow="0">
      <root>
        <mxCell id="0" />
        <mxCell id="1" parent="0" />
        <mxCell id="VPGhu0IeYWBNDRm87MmR-1" value="客户" style="shape=umlActor;verticalLabelPosition=bottom;verticalAlign=top;html=1;" vertex="1" parent="1">
          <mxGeometry x="215" y="250" width="30" height="60" as="geometry" />
        </mxCell>
        <mxCell id="VPGhu0IeYWBNDRm87MmR-2" value="审核员" style="shape=umlActor;verticalLabelPosition=bottom;verticalAlign=top;html=1;" vertex="1" parent="1">
          <mxGeometry x="410" y="350" width="30" height="60" as="geometry" />
        </mxCell>
        <mxCell id="VPGhu0IeYWBNDRm87MmR-3" value="会计" style="shape=umlActor;verticalLabelPosition=bottom;verticalAlign=top;html=1;" vertex="1" parent="1">
          <mxGeometry x="399" y="480" width="30" height="60" as="geometry" />
        </mxCell>
        <mxCell id="VPGhu0IeYWBNDRm87MmR-4" value="发票立证" style="ellipse;whiteSpace=wrap;html=1;" vertex="1" parent="1">
          <mxGeometry x="200" y="430" width="60" height="40" as="geometry" />
        </mxCell>
        <mxCell id="VPGhu0IeYWBNDRm87MmR-5" value="" style="endArrow=classic;html=1;rounded=0;entryX=0;entryY=0.5;entryDx=0;entryDy=0;exitX=0.5;exitY=0.5;exitDx=0;exitDy=0;exitPerimeter=0;" edge="1" parent="1" source="VPGhu0IeYWBNDRm87MmR-1" target="VPGhu0IeYWBNDRm87MmR-15">
          <mxGeometry width="50" height="50" relative="1" as="geometry">
            <mxPoint x="259.52" y="305" as="sourcePoint" />
            <mxPoint x="259.52" y="335" as="targetPoint" />
          </mxGeometry>
        </mxCell>
        <mxCell id="VPGhu0IeYWBNDRm87MmR-7" value="提交发票" style="ellipse;whiteSpace=wrap;html=1;" vertex="1" parent="1">
          <mxGeometry x="200" y="340" width="60" height="40" as="geometry" />
        </mxCell>
        <mxCell id="VPGhu0IeYWBNDRm87MmR-8" value="&amp;lt;&amp;lt;include&amp;gt;&amp;gt;" style="edgeStyle=none;html=1;endArrow=open;verticalAlign=bottom;dashed=1;labelBackgroundColor=none;rounded=0;entryX=0.5;entryY=1;entryDx=0;entryDy=0;exitX=0.5;exitY=0;exitDx=0;exitDy=0;" edge="1" parent="1" source="VPGhu0IeYWBNDRm87MmR-4" target="VPGhu0IeYWBNDRm87MmR-7">
          <mxGeometry x="-0.2" width="160" relative="1" as="geometry">
            <mxPoint x="70" y="470" as="sourcePoint" />
            <mxPoint x="110" y="440" as="targetPoint" />
            <mxPoint as="offset" />
          </mxGeometry>
        </mxCell>
        <mxCell id="VPGhu0IeYWBNDRm87MmR-9" value="建立凭证" style="ellipse;whiteSpace=wrap;html=1;" vertex="1" parent="1">
          <mxGeometry x="300" y="480" width="60" height="40" as="geometry" />
        </mxCell>
        <mxCell id="VPGhu0IeYWBNDRm87MmR-10" value="&amp;lt;&amp;lt;include&amp;gt;&amp;gt;" style="edgeStyle=none;html=1;endArrow=open;verticalAlign=bottom;dashed=1;labelBackgroundColor=none;rounded=0;exitX=1;exitY=1;exitDx=0;exitDy=0;entryX=0;entryY=0.5;entryDx=0;entryDy=0;" edge="1" parent="1" source="VPGhu0IeYWBNDRm87MmR-4" target="VPGhu0IeYWBNDRm87MmR-9">
          <mxGeometry x="-0.2603" y="-16" width="160" relative="1" as="geometry">
            <mxPoint x="240" y="440" as="sourcePoint" />
            <mxPoint x="310" y="450" as="targetPoint" />
            <mxPoint as="offset" />
          </mxGeometry>
        </mxCell>
        <mxCell id="VPGhu0IeYWBNDRm87MmR-11" value="" style="endArrow=classic;html=1;rounded=0;entryX=1;entryY=0.5;entryDx=0;entryDy=0;exitX=0;exitY=0.3333333333333333;exitDx=0;exitDy=0;exitPerimeter=0;" edge="1" parent="1" source="VPGhu0IeYWBNDRm87MmR-3" target="VPGhu0IeYWBNDRm87MmR-9">
          <mxGeometry width="50" height="50" relative="1" as="geometry">
            <mxPoint x="240" y="320" as="sourcePoint" />
            <mxPoint x="240" y="350" as="targetPoint" />
          </mxGeometry>
        </mxCell>
        <mxCell id="VPGhu0IeYWBNDRm87MmR-12" value="审计凭证" style="ellipse;whiteSpace=wrap;html=1;" vertex="1" parent="1">
          <mxGeometry x="310" y="370" width="60" height="40" as="geometry" />
        </mxCell>
        <mxCell id="VPGhu0IeYWBNDRm87MmR-13" value="&amp;lt;&amp;lt;include&amp;gt;&amp;gt;" style="edgeStyle=none;html=1;endArrow=open;verticalAlign=bottom;dashed=1;labelBackgroundColor=none;rounded=0;entryX=0;entryY=1;entryDx=0;entryDy=0;" edge="1" parent="1" source="VPGhu0IeYWBNDRm87MmR-4" target="VPGhu0IeYWBNDRm87MmR-12">
          <mxGeometry x="-0.2652" y="-5" width="160" relative="1" as="geometry">
            <mxPoint x="270" y="460" as="sourcePoint" />
            <mxPoint x="320" y="460" as="targetPoint" />
            <mxPoint as="offset" />
          </mxGeometry>
        </mxCell>
        <mxCell id="VPGhu0IeYWBNDRm87MmR-14" value="" style="endArrow=classic;html=1;rounded=0;exitX=0.5;exitY=0.5;exitDx=0;exitDy=0;exitPerimeter=0;entryX=1;entryY=0.5;entryDx=0;entryDy=0;" edge="1" parent="1" source="VPGhu0IeYWBNDRm87MmR-2" target="VPGhu0IeYWBNDRm87MmR-12">
          <mxGeometry width="50" height="50" relative="1" as="geometry">
            <mxPoint x="420" y="460" as="sourcePoint" />
            <mxPoint x="350" y="370" as="targetPoint" />
          </mxGeometry>
        </mxCell>
        <mxCell id="VPGhu0IeYWBNDRm87MmR-15" value="报销" style="ellipse;whiteSpace=wrap;html=1;" vertex="1" parent="1">
          <mxGeometry x="290" y="260" width="60" height="40" as="geometry" />
        </mxCell>
        <mxCell id="VPGhu0IeYWBNDRm87MmR-16" value="&amp;lt;&amp;lt;include&amp;gt;&amp;gt;" style="edgeStyle=none;html=1;endArrow=open;verticalAlign=bottom;dashed=1;labelBackgroundColor=none;rounded=0;entryX=0;entryY=1;entryDx=0;entryDy=0;exitX=0.5;exitY=0;exitDx=0;exitDy=0;" edge="1" parent="1" source="VPGhu0IeYWBNDRm87MmR-7" target="VPGhu0IeYWBNDRm87MmR-15">
          <mxGeometry x="-0.2" y="-20" width="160" relative="1" as="geometry">
            <mxPoint x="240" y="440" as="sourcePoint" />
            <mxPoint x="240" y="390" as="targetPoint" />
            <mxPoint as="offset" />
          </mxGeometry>
        </mxCell>
        <mxCell id="VPGhu0IeYWBNDRm87MmR-17" value="放款" style="ellipse;whiteSpace=wrap;html=1;" vertex="1" parent="1">
          <mxGeometry x="395" y="280" width="60" height="40" as="geometry" />
        </mxCell>
        <mxCell id="VPGhu0IeYWBNDRm87MmR-18" value="" style="endArrow=classic;html=1;rounded=0;exitX=0.5;exitY=0;exitDx=0;exitDy=0;exitPerimeter=0;entryX=0.5;entryY=1;entryDx=0;entryDy=0;" edge="1" parent="1" source="VPGhu0IeYWBNDRm87MmR-2" target="VPGhu0IeYWBNDRm87MmR-17">
          <mxGeometry width="50" height="50" relative="1" as="geometry">
            <mxPoint x="450" y="370" as="sourcePoint" />
            <mxPoint x="361.21320343559626" y="385.85786437626916" as="targetPoint" />
          </mxGeometry>
        </mxCell>
        <mxCell id="VPGhu0IeYWBNDRm87MmR-20" value="&amp;lt;&amp;lt;include&amp;gt;&amp;gt;" style="edgeStyle=none;html=1;endArrow=open;verticalAlign=bottom;dashed=1;labelBackgroundColor=none;rounded=0;entryX=1;entryY=0.5;entryDx=0;entryDy=0;exitX=0;exitY=0;exitDx=0;exitDy=0;" edge="1" parent="1" source="VPGhu0IeYWBNDRm87MmR-17" target="VPGhu0IeYWBNDRm87MmR-15">
          <mxGeometry x="-0.1024" y="-3" width="160" relative="1" as="geometry">
            <mxPoint x="240" y="350" as="sourcePoint" />
            <mxPoint x="308.7867965644035" y="304.14213562373095" as="targetPoint" />
            <mxPoint as="offset" />
          </mxGeometry>
        </mxCell>
      </root>
    </mxGraphModel>
  </diagram>
</mxfile>
